<svg xmlns="http://www.w3.org/2000/svg" viewBox="0 0 192 192" width="192" height="192">
  <rect width="192" height="192" fill="#1e293b" rx="38" ry="38"/>
  <path d="M96 40C80 40 68 50 64 70h8c2-12 10-22 24-22s22 10 24 22h8c-4-20-16-30-32-30zM68 70c-2 12 4 18 8 20s10 0 20-8c10 8 16 10 20 8s10-8 8-20h-8c0 10-2 12-6 14s-10-2-14-6c-4 4-10 8-14 6s-6-4-6-14h-8zm16-10c-4 0-8 2-8 6s4 6 8 6 8-2 8-6-4-6-8-6zm32 0c-4 0-8 2-8 6s4 6 8 6 8-2 8-6-4-6-8-6zm-32 4c2 0 4 1 4 2s-2 2-4 2-4-1-4-2 2-2 4-2zm32 0c2 0 4 1 4 2s-2 2-4 2-4-1-4-2 2-2 4-2zm-32 26c-6 0-12 6-12 16s6 16 12 16 12-6 12-16-6-16-12-16zm0 6c4 0 6 4 6 10s-2 10-6 10-6-4-6-10 2-10 6-10zm-24 4h16v4h-16v-4zm48 0h16v4h-16v-4z" fill="white"/>
</svg>